<?xml version="1.0" standalone="no"?>
<!DOCTYPE svg PUBLIC "-//W3C//DTD SVG 20010904//EN"
 "http://www.w3.org/TR/2001/REC-SVG-20010904/DTD/svg10.dtd">
<svg version="1.0" xmlns="http://www.w3.org/2000/svg"
 width="80.000000pt" height="80.000000pt" viewBox="0 0 80.000000 80.000000"
 preserveAspectRatio="xMidYMid meet">
<metadata>
Created by potrace 1.14, written by Peter Selinger 2001-2017
</metadata>
<g transform="translate(0.000000,80.000000) scale(0.100000,-0.100000)"
fill="#000000" stroke="none">
<path d="M338 676 c-92 -25 -168 -100 -199 -194 -19 -57 -6 -161 27 -222 73
-134 238 -184 379 -115 137 67 200 247 128 363 -113 183 -394 113 -397 -98 -1
-62 15 -96 65 -132 54 -40 150 -21 193 38 64 89 -6 207 -104 173 -53 -19 -78
-89 -44 -123 18 -19 28 -20 55 -6 25 14 25 40 -1 40 -26 0 -26 26 -1 40 27 14
37 13 55 -6 24 -23 20 -67 -9 -98 -25 -27 -44 -32 -98 -27 -25 2 -56 41 -63
77 -24 131 155 211 245 109 59 -68 49 -161 -24 -231 -126 -121 -331 -23 -319
153 3 54 37 130 76 170 41 43 121 76 183 76 43 0 46 1 25 9 -42 16 -122 18
-172 4z"/>
</g>
</svg>
